<svg width="830" height="592" viewBox="0 0 830 592" fill="none" xmlns="http://www.w3.org/2000/svg">
<path opacity="0.1" d="M730.662 487.92C723.488 491.615 715.972 494.807 708.566 497.938C681.17 509.486 653.35 521.156 623.929 525.123C568.642 532.523 511.603 512.386 457.294 524.951C411.801 535.443 374.178 567.591 329.733 581.908C309.067 588.563 287.566 591.171 265.872 591.171H263.071C260.401 591.171 257.741 591.07 255.071 590.97C233.075 590.144 210.989 586.942 189.426 582.744C121.344 569.655 52.052 545.662 0 501.492C151.561 473.814 463.762 431.346 730.662 487.92Z" fill="#252223"/>
<g clip-path="url(#clip0)">
<path opacity="0.3" d="M787.868 185.337V131.302H755.782V185.337H717.785V101.751H689.92V39.2722H667.122V-24.895H619.837V39.2722H597.038V101.751H570.018V26.6076H554.819V-11.3861H545.531V26.6076H491.491V266.39H450.116V241.061H424.785V266.39H383.41V185.337H309.105V131.302H277.019V185.337H275.33V289.187H241.555V228.397H201.025V289.187H167.249V101.751H141.074V39.2722H44.8145V101.751H19.4832V431.874H167.249H275.33H383.41H491.491H570.018H717.785H825.865V185.337H787.868Z" fill="#9877CD"/>
<path opacity="0.4" d="M327.128 282.504H228.385V294.586H327.128V282.504Z" fill="white"/>
<path opacity="0.4" d="M327.128 300.627H228.385V312.709H327.128V300.627Z" fill="white"/>
<path opacity="0.4" d="M327.128 318.75H228.385V330.832H327.128V318.75Z" fill="white"/>
<path opacity="0.4" d="M327.128 336.874H228.385V348.956H327.128V336.874Z" fill="white"/>
<path opacity="0.4" d="M327.128 354.996H228.385V367.079H327.128V354.996Z" fill="white"/>
<path opacity="0.4" d="M327.128 373.12H228.385V385.202H327.128V373.12Z" fill="white"/>
<path opacity="0.4" d="M71.5433 158.782H29.2246V182.946H71.5433V158.782Z" fill="white"/>
<path opacity="0.4" d="M123.938 182.946H166.257V158.781H123.938V182.946Z" fill="white"/>
<path opacity="0.4" d="M71.5433 206.103H29.2246V230.267H71.5433V206.103Z" fill="white"/>
<path opacity="0.4" d="M123.938 230.267H166.257V206.103H123.938V230.267Z" fill="white"/>
<path opacity="0.4" d="M71.5433 253.424H29.2246V277.589H71.5433V253.424Z" fill="white"/>
<path opacity="0.4" d="M71.5433 300.746H29.2246V324.91H71.5433V300.746Z" fill="white"/>
<path opacity="0.4" d="M71.5433 348.067H29.2246V372.232H71.5433V348.067Z" fill="white"/>
<path opacity="0.4" d="M71.5433 395.389H29.2246V419.553H71.5433V395.389Z" fill="white"/>
<path opacity="0.4" d="M71.5433 442.71H29.2246V466.874H71.5433V442.71Z" fill="white"/>
<path opacity="0.4" d="M58.4447 82.2618H40.3081V120.522H58.4447V82.2618Z" fill="white"/>
<path d="M340.492 478.525H356.248L363.743 417.754L340.49 417.756L340.492 478.525Z" fill="#FFB7B7"/>
<path d="M336.474 473.382L367.502 473.38H367.503C372.747 473.381 377.776 475.464 381.484 479.172C385.193 482.88 387.276 487.909 387.276 493.154V493.796L336.475 493.798L336.474 473.382Z" fill="#2F2E41"/>
<path d="M255.188 478.525H270.943L278.438 417.754L255.185 417.756L255.188 478.525Z" fill="#FFB7B7"/>
<path d="M251.169 473.382L282.197 473.38H282.198C287.442 473.381 292.471 475.464 296.18 479.172C299.888 482.88 301.971 487.909 301.971 493.154V493.796L251.17 493.798L251.169 473.382Z" fill="#2F2E41"/>
<path d="M248.768 203.098V363.553L252.831 467.138H286.344L297.514 272.154L319.855 352.382L334.074 465.106L374.695 463.075L347.276 203.098H248.768Z" fill="#2F2E41"/>
<path d="M287.726 58.8915C301.187 58.8915 312.099 47.9794 312.099 34.5187C312.099 21.0579 301.187 10.1458 287.726 10.1458C274.265 10.1458 263.353 21.0579 263.353 34.5187C263.353 47.9794 274.265 58.8915 287.726 58.8915Z" fill="#FFB8B8"/>
<path d="M277.599 65.2412L271.11 72.0938L265.017 209.192L337.12 207.16L319.855 87.3274L304.623 72.7292L296.894 65.2412H277.599Z" fill="#6C63FF"/>
<path d="M266.032 80.2178L271.505 71.3349L273.141 90.3731C273.141 90.3731 286.343 133.026 285.327 170.601C284.312 208.175 290.405 296.527 282.281 297.543C274.156 298.558 239.628 300.589 239.628 293.48C239.628 286.372 237.597 97.4819 237.597 97.4819L266.032 80.2178Z" fill="#3F3D56"/>
<path d="M302.987 71.3349L316.809 82.2488L347.275 93.4198C347.275 93.4198 347.275 223.408 353.368 253.874C359.461 284.341 370.632 287.387 356.415 288.403C342.197 289.418 343.213 284.341 343.213 284.341C343.213 284.341 353.368 233.564 340.166 223.408C326.964 213.253 301.576 154.352 303.607 121.855C305.638 89.3576 300.956 71.3349 302.987 71.3349Z" fill="#3F3D56"/>
<path d="M264.668 42.1441C264.668 42.1441 266.739 38.5074 266.257 26.3586C265.776 14.2098 284.276 21.081 299.734 19.922C315.193 18.7631 311.921 40.2049 311.921 40.2049C311.921 40.2049 313.036 38.9303 315.423 28.5818C317.811 18.2334 312.39 7.92083 312.39 7.92083C310.793 -2.95342 302.188 0.531789 302.188 0.531789C306.332 2.14503 305.536 5.5945 305.536 5.5945C302.028 -0.555649 293.423 2.92958 293.423 2.92958C281.947 -4.27224 270.315 5.21166 270.315 5.21166C256.451 8.35817 264.582 19.3839 264.582 19.3839C250.639 26.43 264.668 42.1441 264.668 42.1441Z" fill="#2F2E41"/>
<path d="M239.662 278.796C240.695 277.704 241.476 276.399 241.95 274.973C242.425 273.547 242.58 272.034 242.406 270.541C242.233 269.048 241.734 267.611 240.944 266.332C240.155 265.053 239.095 263.962 237.839 263.137L242.23 240.056L228.854 233.967L223.112 266.649C221.866 268.851 221.47 271.434 222.001 273.908C222.532 276.382 223.952 278.576 225.992 280.073C228.032 281.571 230.55 282.268 233.07 282.032C235.589 281.797 237.935 280.645 239.662 278.796Z" fill="#FFB7B7"/>
<path d="M242.675 97.4819L239.978 96.0361C239.978 96.0361 225.411 101.544 226.426 105.606C227.442 109.668 218.302 251.843 221.349 256.921C224.395 261.999 248.768 257.937 248.768 257.937L242.675 97.4819Z" fill="#3F3D56"/>
<path d="M358.607 269.224C357.433 268.286 356.479 267.101 355.812 265.754C355.145 264.407 354.781 262.931 354.747 261.428C354.713 259.925 355.008 258.433 355.613 257.057C356.217 255.681 357.116 254.454 358.246 253.463L350.704 231.212L363.108 223.331L373.317 254.903C374.857 256.912 375.606 259.415 375.422 261.939C375.239 264.463 374.136 266.832 372.323 268.598C370.51 270.363 368.112 271.401 365.584 271.517C363.056 271.632 360.574 270.817 358.607 269.224V269.224Z" fill="#FFB7B7"/>
<path d="M346.703 249.825C346.703 249.825 371.403 250.476 373.718 245.026C376.033 239.575 347.309 100.032 347.753 95.8686C348.197 91.705 333.007 88.2657 333.007 88.2657L330.537 90.0706L346.703 249.825Z" fill="#3F3D56"/>
<path d="M455.873 256.104L440.58 181.171L433.863 125.825L418.98 135.453L421.036 196.444L444.79 259.636C444.026 261.09 443.713 262.738 443.888 264.371C444.064 266.004 444.722 267.548 445.777 268.806C446.832 270.064 448.238 270.98 449.815 271.438C451.393 271.895 453.07 271.873 454.635 271.374C456.2 270.875 457.581 269.923 458.603 268.637C459.625 267.351 460.241 265.791 460.374 264.154C460.506 262.517 460.149 260.878 459.348 259.444C458.546 258.011 457.337 256.848 455.873 256.104H455.873Z" fill="#FFB7B7"/>
<path d="M312.845 261.898L317.078 185.537L315.676 129.803L335.351 137.165L338.635 197.806L324.323 263.781C325.29 265.109 325.84 266.694 325.904 268.335C325.967 269.976 325.541 271.599 324.68 272.997C323.819 274.395 322.561 275.506 321.067 276.188C319.573 276.87 317.91 277.092 316.29 276.826C314.669 276.56 313.164 275.818 311.966 274.695C310.768 273.571 309.931 272.117 309.562 270.517C309.193 268.917 309.308 267.243 309.892 265.708C310.477 264.173 311.505 262.847 312.845 261.898Z" fill="#FFB7B7"/>
<path d="M354.051 483.905H364.105L368.888 445.127L354.05 445.128L354.051 483.905Z" fill="#FFB7B7"/>
<path d="M351.487 480.623L371.286 480.622H371.286C374.633 480.622 377.842 481.951 380.208 484.318C382.574 486.684 383.904 489.893 383.904 493.239V493.649L351.488 493.65L351.487 480.623Z" fill="#2F2E41"/>
<path d="M392.13 479.456L402.065 480.993L412.721 443.403L398.057 441.135L392.13 479.456Z" fill="#FFB7B7"/>
<path d="M390.098 475.82L409.664 478.847L409.665 478.847C412.971 479.359 415.94 481.163 417.916 483.863C419.893 486.563 420.716 489.938 420.204 493.245L420.142 493.65L388.106 488.695L390.098 475.82Z" fill="#2F2E41"/>
<path d="M351.098 472.327L351.046 472.046L314.652 275.272C311.763 259.475 314.067 243.167 321.22 228.789L343.248 184.733L408.979 193.638L416.736 249.728L444.38 356.729L444.352 356.816L408.934 469.321L385.722 470.848L406.284 370.422L368.634 284.907L371.29 470.797L351.098 472.327Z" fill="#2F2E41"/>
<path d="M410.509 200.816L410.075 200.136C409.997 200.014 402.013 187.984 380.286 196.016C358.106 204.217 340.92 188.378 340.749 188.217L340.664 188.137L335.641 143.367L329.712 107.023L348.587 103.711L357.867 98.1435L394.768 97.4865L404.479 105.124L420.422 106.861L421.881 139.978L421.875 140.014L410.509 200.816Z" fill="#6C63FF"/>
<path d="M415.797 143.181V114.824L420.281 106.642L420.463 106.637C423.992 106.768 427.328 108.284 429.749 110.856C434.258 115.438 436.301 123.071 435.82 133.544L435.811 133.736L415.797 143.181Z" fill="#6C63FF"/>
<path d="M337.655 140.099L314.804 137.356L314.786 137.093C314.007 125.698 315.996 117.24 320.698 111.953C323.058 109.126 326.406 107.303 330.061 106.855L330.193 106.849L336.379 112.472L337.655 140.099Z" fill="#6C63FF"/>
<path d="M403.802 86.0605H343.673C342.436 86.0591 341.25 85.5672 340.376 84.6926C339.501 83.818 339.009 82.6322 339.008 81.3954V59.6246C339 55.0589 339.893 50.5366 341.635 46.3163C343.377 42.096 345.934 38.2606 349.159 35.0294C352.385 31.7983 356.216 29.235 360.434 27.486C364.651 25.737 369.172 24.8368 373.737 24.8368C378.303 24.8368 382.824 25.737 387.041 27.486C391.259 29.235 395.09 31.7983 398.316 35.0294C401.541 38.2606 404.098 42.096 405.84 46.3163C407.582 50.5366 408.475 55.0589 408.467 59.6246V81.3954C408.466 82.6322 407.974 83.818 407.099 84.6926C406.224 85.5672 405.039 86.0591 403.802 86.0605Z" fill="#2F2E41"/>
<path d="M375.133 85.8463C389.196 85.8463 400.596 74.4463 400.596 60.3837C400.596 46.3212 389.196 34.9212 375.133 34.9212C361.071 34.9212 349.671 46.3212 349.671 60.3837C349.671 74.4463 361.071 85.8463 375.133 85.8463Z" fill="#FFB7B7"/>
<path d="M399.336 61.1796H365.719C365.088 61.1788 364.478 60.9477 364.005 60.5297C363.531 60.1117 363.226 59.5354 363.147 58.9088L362.712 55.4271C362.67 55.0923 362.521 54.7802 362.286 54.5379C362.051 54.2956 361.744 54.1361 361.411 54.0837C361.078 54.0312 360.736 54.0886 360.438 54.2471C360.141 54.4056 359.903 54.6567 359.76 54.9624L357.556 59.6843C357.347 60.1304 357.014 60.5078 356.599 60.7725C356.183 61.0372 355.7 61.1784 355.208 61.1796H350.101C349.74 61.1797 349.383 61.1043 349.052 60.9582C348.722 60.8121 348.426 60.5985 348.183 60.3312C347.94 60.0639 347.756 59.7487 347.642 59.406C347.528 59.0632 347.487 58.7004 347.521 58.3408L349.535 37.3101C349.578 36.8602 349.737 36.4291 349.996 36.0591C350.256 35.6891 350.607 35.3928 351.016 35.1992C366.411 28.0122 382.023 28.0213 397.419 35.2266C397.809 35.4101 398.148 35.6882 398.404 36.0355C398.66 36.3829 398.825 36.7886 398.885 37.216L401.901 58.2194C401.954 58.5871 401.927 58.962 401.823 59.3185C401.718 59.675 401.538 60.0048 401.295 60.2855C401.051 60.5663 400.751 60.7914 400.413 60.9457C400.075 61.1 399.707 61.1798 399.336 61.1796H399.336Z" fill="#2F2E41"/>
<path d="M413.168 258.485C414.449 258.032 415.616 257.303 416.585 256.349C417.555 255.396 418.303 254.242 418.778 252.968C419.253 251.694 419.443 250.332 419.335 248.976C419.226 247.621 418.822 246.306 418.15 245.124L439.944 220.279L422.932 217.932L404.844 241.885C402.933 243.145 401.55 245.062 400.958 247.273C400.366 249.485 400.606 251.836 401.632 253.882C402.658 255.929 404.399 257.527 406.525 258.376C408.651 259.224 411.015 259.263 413.168 258.485Z" fill="#9F616A"/>
<path d="M439.451 478.67L424.251 478.669L417.02 420.04L439.454 420.042L439.451 478.67Z" fill="#9F616A"/>
<path d="M443.328 493.405L394.316 493.403V492.783C394.317 487.724 396.326 482.872 399.904 479.294C403.481 475.717 408.333 473.707 413.393 473.707H413.394L443.329 473.708L443.328 493.405Z" fill="#2F2E41"/>
<path d="M519.019 465.95L504.502 470.457L480.209 416.609L501.635 409.958L519.019 465.95Z" fill="#9F616A"/>
<path d="M527.09 478.872L480.283 493.405L480.099 492.813C478.599 487.981 479.079 482.751 481.435 478.273C483.791 473.796 487.829 470.438 492.66 468.937L492.661 468.937L521.25 460.061L527.09 478.872Z" fill="#2F2E41"/>
<path d="M427.811 208.367L405.299 234.149L422.923 235.734L427.811 208.367Z" fill="#E6E6E6"/>
<path d="M419.015 241.599C419.015 241.599 411.195 245.508 410.218 263.102C409.24 280.696 413.15 326.638 413.15 326.638C413.15 326.638 409.241 347.164 413.15 365.735C417.06 384.306 409.241 451.745 414.128 451.745C419.015 451.745 444.427 454.677 445.405 451.745C446.382 448.812 447.36 404.829 447.36 404.829C447.36 404.829 455.179 382.348 447.36 368.668C447.36 368.668 474.662 416.341 492.321 452.725C496.186 460.688 525.553 451.747 520.666 442.95C515.779 434.153 504.051 394.079 504.051 394.079C504.051 394.079 495.254 364.757 479.616 352.05L487.435 289.495C487.435 289.495 504.051 247.466 494.279 241.602C484.506 235.737 419.015 241.599 419.015 241.599Z" fill="#2F2E41"/>
<path d="M448.337 82.2783C462.372 82.2783 473.749 70.9007 473.749 56.8657C473.749 42.8306 462.372 31.453 448.337 31.453C434.302 31.453 422.924 42.8306 422.924 56.8657C422.924 70.9007 434.302 82.2783 448.337 82.2783Z" fill="#A0616A"/>
<path d="M476.682 84.2334L445.09 102.804C445.09 102.804 432.993 109.616 428.474 121.375C423.657 133.906 426.457 151.55 428.474 155.584C432.383 163.404 426.834 182.952 426.834 182.952L421.947 227.913C421.947 227.913 404.354 244.529 418.038 246.484C431.722 248.439 456.157 245.506 470.818 246.484C485.48 247.461 502.095 249.416 497.209 239.64C492.322 229.864 486.457 223.023 492.322 203.479C496.911 188.182 496.712 130.987 496.409 106.834C496.367 103.517 495.477 100.265 493.824 97.3894C492.171 94.5133 489.81 92.1079 486.965 90.402L476.682 84.2334Z" fill="#E5E5E5"/>
<path opacity="0.1" d="M462.514 115.023L465.445 174.645L437.029 232.191L432.209 230.357L461.532 176.6L462.514 115.023Z" fill="black"/>
<path opacity="0.1" d="M494.765 187.351V180.507L461.536 235.244L494.765 187.351Z" fill="black"/>
<path d="M430.301 33.324L426.103 31.6444C426.103 31.6444 434.889 21.9734 447.109 22.8141L443.671 19.0297C443.671 19.0297 452.073 15.666 459.712 24.4955C463.728 29.1372 468.373 34.5937 471.273 40.7393H475.772L473.895 44.8742L480.467 49.0092L473.721 48.2693C474.36 51.839 474.141 55.5094 473.083 58.978L473.268 62.2464C473.268 62.2464 465.445 50.1412 465.445 48.4616V52.6669C465.445 52.6669 461.243 48.8824 461.243 46.3595L458.951 49.3033L457.805 44.6791L443.674 49.3033L445.964 45.517L437.178 46.7785L440.615 42.1543C440.615 42.1543 430.686 47.6201 430.304 52.2461C429.922 56.8721 424.957 62.7578 424.957 62.7578L422.665 58.5525C422.665 58.5525 419.229 39.6313 430.301 33.324Z" fill="#2F2E41"/>
<path d="M446.742 261.251C447.923 260.577 448.942 259.652 449.726 258.542C450.511 257.432 451.043 256.163 451.284 254.825C451.526 253.487 451.471 252.113 451.124 250.798C450.776 249.484 450.145 248.261 449.274 247.217L466.312 218.899L449.153 219.609L435.604 246.392C433.947 247.971 432.927 250.103 432.737 252.384C432.547 254.665 433.2 256.937 434.573 258.769C435.946 260.6 437.943 261.865 440.186 262.322C442.429 262.78 444.761 262.399 446.742 261.251Z" fill="#9F616A"/>
<path d="M485.48 96.9416L492.81 95.4757C492.81 95.4757 514.802 111.603 507.96 143.858C501.118 176.112 470.819 224.983 470.819 224.983C470.819 224.983 463.975 233.78 462.022 235.734C460.068 237.689 456.157 235.734 458.112 238.667C460.068 241.6 455.18 243.554 455.18 243.554C455.18 243.554 433.676 243.554 435.632 235.734C437.587 227.915 470.819 172.198 470.819 172.198L465.932 120.395C465.932 120.395 462.021 94.9865 485.48 96.9416Z" fill="#E5E5E5"/>
<path d="M828.898 495.735H167.556C167.269 495.735 166.994 495.621 166.791 495.418C166.588 495.215 166.474 494.94 166.474 494.653C166.474 494.366 166.588 494.091 166.791 493.888C166.994 493.685 167.269 493.571 167.556 493.571H828.898C829.185 493.571 829.46 493.685 829.663 493.888C829.866 494.091 829.98 494.366 829.98 494.653C829.98 494.94 829.866 495.215 829.663 495.418C829.46 495.621 829.185 495.735 828.898 495.735Z" fill="#CACACA"/>
<path opacity="0.4" d="M757.457 197.347H799.775V173.183H757.457V197.347Z" fill="white"/>
<path opacity="0.4" d="M757.457 244.668H799.775V220.504H757.457V244.668Z" fill="white"/>
<path opacity="0.4" d="M757.457 291.99H799.775V267.826H757.457V291.99Z" fill="white"/>
<path opacity="0.4" d="M757.457 339.311H799.775V315.147H757.457V339.311Z" fill="white"/>
<path opacity="0.4" d="M757.457 386.632H799.775V362.468H757.457V386.632Z" fill="white"/>
<path d="M694.563 386.179C694.563 386.179 762.444 438.082 760.55 508.641" stroke="#535461" stroke-miterlimit="10"/>
<path d="M764.238 511.36C764.238 511.36 739.381 427.027 768.903 364.955C781.286 338.908 785.397 309.66 779.674 281.388C776.941 267.964 772.978 254.82 767.835 242.121" stroke="#535461" stroke-width="2" stroke-miterlimit="10"/>
<path d="M786.173 202.945C786.173 213.275 767.452 243.218 767.452 243.218C767.452 243.218 748.721 213.245 748.721 202.945C748.663 200.451 749.105 197.971 750.02 195.65C750.935 193.329 752.305 191.214 754.049 189.43C755.794 187.646 757.878 186.228 760.179 185.26C762.479 184.292 764.951 183.794 767.447 183.794C769.943 183.794 772.414 184.292 774.715 185.26C777.016 186.228 779.1 187.646 780.845 189.43C782.589 191.214 783.959 193.329 784.874 195.65C785.789 197.971 786.231 200.451 786.173 202.945Z" fill="#9877CD"/>
<path d="M817.166 260.194C811.544 268.873 779.523 283.854 779.523 283.854C779.523 283.854 780.097 248.524 785.72 239.855C788.45 235.761 792.685 232.905 797.507 231.907C802.329 230.909 807.35 231.848 811.484 234.522C815.618 237.196 818.532 241.388 819.596 246.193C820.659 250.997 819.786 256.027 817.166 260.194Z" fill="#9877CD"/>
<path d="M815.806 358.028C806.577 362.68 771.362 359.458 771.362 359.458C771.362 359.458 789.71 329.253 798.949 324.601C803.377 322.441 808.478 322.111 813.147 323.683C817.816 325.255 821.677 328.601 823.894 332.998C826.111 337.394 826.506 342.487 824.992 347.172C823.478 351.857 820.178 355.757 815.806 358.028Z" fill="#9877CD"/>
<path d="M798.103 431.819C789.79 437.961 754.545 440.74 754.545 440.74C754.545 440.74 767.513 407.867 775.835 401.725C779.835 398.889 784.788 397.734 789.631 398.508C794.474 399.281 798.82 401.922 801.735 405.862C804.651 409.803 805.904 414.729 805.225 419.582C804.545 424.436 801.988 428.829 798.103 431.819Z" fill="#9877CD"/>
<path d="M740.197 285.858C747.613 293.057 782.183 300.518 782.183 300.518C782.183 300.518 773.719 266.215 766.293 259.016C764.529 257.303 762.445 255.955 760.16 255.048C757.875 254.14 755.433 253.691 752.974 253.727C750.515 253.762 748.088 254.282 745.83 255.255C743.572 256.228 741.527 257.636 739.814 259.398C738.1 261.161 736.751 263.243 735.843 265.527C734.935 267.81 734.486 270.25 734.521 272.707C734.557 275.164 735.076 277.59 736.05 279.847C737.024 282.103 738.433 284.146 740.197 285.858Z" fill="#9877CD"/>
<path d="M720.589 372.416C729.819 377.078 765.034 373.856 765.034 373.856C765.034 373.856 746.686 343.65 737.456 338.999C735.255 337.834 732.843 337.119 730.362 336.897C727.88 336.675 725.38 336.949 723.006 337.705C720.632 338.46 718.433 339.681 716.537 341.296C714.641 342.911 713.087 344.888 711.965 347.11C710.843 349.333 710.177 351.757 710.004 354.24C709.831 356.724 710.155 359.217 710.958 361.573C711.762 363.93 713.027 366.102 714.681 367.964C716.334 369.826 718.343 371.339 720.589 372.416Z" fill="#9877CD"/>
<path opacity="0.25" d="M786.173 202.945C786.173 213.275 767.452 243.218 767.452 243.218C767.452 243.218 748.721 213.245 748.721 202.945C748.663 200.451 749.105 197.971 750.02 195.65C750.935 193.329 752.305 191.214 754.049 189.43C755.794 187.646 757.878 186.228 760.179 185.26C762.479 184.292 764.951 183.794 767.447 183.794C769.943 183.794 772.414 184.292 774.715 185.26C777.016 186.228 779.1 187.646 780.845 189.43C782.589 191.214 783.959 193.329 784.874 195.65C785.789 197.971 786.231 200.451 786.173 202.945Z" fill="black"/>
<path opacity="0.25" d="M817.166 260.194C811.544 268.873 779.523 283.854 779.523 283.854C779.523 283.854 780.097 248.524 785.72 239.855C788.45 235.761 792.685 232.905 797.507 231.907C802.329 230.909 807.35 231.848 811.484 234.522C815.618 237.196 818.532 241.388 819.596 246.193C820.659 250.997 819.786 256.027 817.166 260.194Z" fill="black"/>
<path opacity="0.25" d="M815.806 358.028C806.577 362.68 771.362 359.458 771.362 359.458C771.362 359.458 789.71 329.253 798.949 324.601C803.377 322.441 808.478 322.111 813.147 323.683C817.816 325.255 821.677 328.601 823.894 332.998C826.111 337.394 826.506 342.487 824.992 347.172C823.478 351.857 820.178 355.757 815.806 358.028Z" fill="black"/>
<path opacity="0.25" d="M798.103 431.819C789.79 437.961 754.545 440.74 754.545 440.74C754.545 440.74 767.513 407.867 775.835 401.725C779.835 398.889 784.788 397.734 789.631 398.508C794.474 399.281 798.82 401.922 801.735 405.862C804.651 409.803 805.904 414.729 805.225 419.582C804.545 424.436 801.988 428.829 798.103 431.819Z" fill="black"/>
<path opacity="0.25" d="M740.197 285.858C747.613 293.057 782.183 300.518 782.183 300.518C782.183 300.518 773.719 266.215 766.293 259.016C764.529 257.303 762.445 255.955 760.16 255.048C757.875 254.14 755.433 253.691 752.974 253.727C750.515 253.762 748.088 254.282 745.83 255.255C743.572 256.228 741.527 257.636 739.814 259.398C738.1 261.161 736.751 263.243 735.843 265.527C734.935 267.81 734.486 270.25 734.521 272.707C734.557 275.164 735.076 277.59 736.05 279.847C737.024 282.103 738.433 284.146 740.197 285.858Z" fill="black"/>
<path opacity="0.25" d="M720.589 372.416C729.819 377.078 765.034 373.856 765.034 373.856C765.034 373.856 746.686 343.65 737.456 338.999C735.255 337.834 732.843 337.119 730.362 336.897C727.88 336.675 725.38 336.949 723.006 337.705C720.632 338.46 718.433 339.681 716.537 341.296C714.641 342.911 713.087 344.888 711.965 347.11C710.843 349.333 710.177 351.757 710.004 354.24C709.831 356.724 710.155 359.217 710.958 361.573C711.762 363.93 713.027 366.102 714.681 367.964C716.334 369.826 718.343 371.339 720.589 372.416Z" fill="black"/>
<path opacity="0.4" d="M648.353 129.887H529.29V164.524H648.353V129.887Z" fill="white"/>
<path opacity="0.4" d="M648.353 204.572H529.29V239.209H648.353V204.572Z" fill="white"/>
<path opacity="0.4" d="M649.435 279.257H530.372V312.811H649.435V279.257Z" fill="white"/>
<path opacity="0.4" d="M649.435 352.86H530.372V387.496H649.435V352.86Z" fill="white"/>
<path d="M623.714 480.582C623.714 480.582 612.064 440.58 625.901 411.121C631.776 398.805 633.548 384.895 630.953 371.474C629.668 365.111 627.809 358.88 625.401 352.86" stroke="#535461" stroke-width="2" stroke-miterlimit="10"/>
<path d="M633.199 334.385C633.199 339.124 624.54 352.86 624.54 352.86C624.54 352.86 615.881 339.124 615.881 334.385C615.881 332.108 616.793 329.924 618.417 328.314C620.041 326.704 622.243 325.8 624.54 325.8C626.837 325.8 629.039 326.704 630.663 328.314C632.287 329.924 633.199 332.108 633.199 334.385Z" fill="#9877CD"/>
<path d="M648.262 360.983C645.688 365.147 631.034 372.343 631.034 372.343C631.034 372.343 631.3 355.379 633.874 351.215C635.157 349.331 637.084 348.039 639.253 347.606C641.421 347.174 643.666 347.634 645.519 348.893C647.372 350.151 648.691 352.109 649.202 354.361C649.713 356.613 649.376 358.985 648.262 360.983Z" fill="#9877CD"/>
<path d="M648.071 407.915C643.628 410.189 626.705 408.612 626.705 408.612C626.705 408.612 635.527 393.831 639.961 391.557C642.078 390.583 644.482 390.48 646.673 391.267C648.863 392.055 650.67 393.672 651.716 395.783C652.763 397.893 652.968 400.333 652.288 402.594C651.609 404.854 650.098 406.761 648.071 407.915Z" fill="#9877CD"/>
<path d="M639.075 442.792C635.271 445.711 619.128 447.028 619.128 447.028C619.128 447.028 625.07 431.421 628.883 428.502C629.782 427.732 630.824 427.16 631.944 426.82C633.064 426.481 634.239 426.381 635.397 426.528C636.555 426.675 637.672 427.065 638.68 427.674C639.688 428.283 640.566 429.099 641.259 430.071C641.953 431.044 642.448 432.153 642.714 433.33C642.98 434.507 643.012 435.728 642.808 436.919C642.604 438.109 642.167 439.244 641.525 440.254C640.884 441.264 640.05 442.128 639.075 442.792Z" fill="#9877CD"/>
<path d="M612.366 373.232C615.895 376.516 632.117 379.92 632.117 379.92C632.117 379.92 628.138 364.26 624.645 360.976C623.829 360.132 622.845 359.457 621.752 358.992C620.66 358.527 619.481 358.282 618.288 358.272C617.094 358.262 615.911 358.486 614.81 358.932C613.709 359.377 612.712 360.035 611.881 360.865C611.049 361.695 610.4 362.68 609.972 363.76C609.545 364.84 609.348 365.993 609.393 367.149C609.438 368.305 609.725 369.44 610.236 370.486C610.747 371.531 611.472 372.465 612.366 373.232Z" fill="#9877CD"/>
<path d="M602.989 414.406C607.245 416.679 623.458 415.112 623.458 415.112C623.458 415.112 615.006 400.334 610.75 398.051C608.722 397.078 606.418 396.974 604.32 397.761C602.221 398.549 600.49 400.166 599.488 402.276C598.485 404.386 598.289 406.826 598.94 409.086C599.591 411.346 601.038 413.252 602.98 414.406H602.989Z" fill="#9877CD"/>
<path d="M598.77 455.677C602.859 458.667 620.21 460.016 620.21 460.016C620.21 460.016 613.796 444.019 609.735 441.029C607.763 439.704 605.348 439.185 602.997 439.58C600.646 439.975 598.541 441.254 597.123 443.148C595.706 445.042 595.085 447.404 595.392 449.74C595.699 452.076 596.91 454.204 598.77 455.677Z" fill="#9877CD"/>
<path d="M558.514 440.533C558.801 440.533 559.076 440.419 559.279 440.216C559.482 440.013 559.596 439.738 559.596 439.451C559.596 439.164 559.482 438.889 559.279 438.686C559.076 438.483 558.801 438.369 558.514 438.369C558.227 438.369 557.952 438.483 557.749 438.686C557.546 438.889 557.432 439.164 557.432 439.451C557.432 439.738 557.546 440.013 557.749 440.216C557.952 440.419 558.227 440.533 558.514 440.533Z" fill="#535461"/>
<path opacity="0.1" d="M805.878 62.7381H798.946C799.601 62.768 800.256 62.6647 800.871 62.4345C801.486 62.2044 802.047 61.8521 802.522 61.399C802.996 60.9459 803.374 60.4013 803.632 59.7982C803.89 59.1952 804.023 58.5461 804.023 57.8902C804.023 57.2342 803.89 56.5851 803.632 55.9821C803.374 55.379 802.996 54.8344 802.522 54.3813C802.047 53.9282 801.486 53.5759 800.871 53.3458C800.256 53.1156 799.601 53.0124 798.946 53.0422H742.793C742.137 53.0124 741.482 53.1156 740.867 53.3458C740.253 53.5759 739.691 53.9282 739.216 54.3813C738.742 54.8344 738.364 55.379 738.106 55.9821C737.848 56.5851 737.715 57.2342 737.715 57.8902C737.715 58.5461 737.848 59.1952 738.106 59.7982C738.364 60.4013 738.742 60.9459 739.216 61.399C739.691 61.8521 740.253 62.2044 740.867 62.4345C741.482 62.6647 742.137 62.768 742.793 62.7381H749.725C748.437 62.7381 747.202 63.2494 746.291 64.1595C745.38 65.0696 744.868 66.304 744.868 67.5911C744.868 68.8781 745.38 70.1125 746.291 71.0226C747.202 71.9327 748.437 72.444 749.725 72.444H740.022C739.366 72.4142 738.711 72.5174 738.096 72.7476C737.482 72.9777 736.92 73.33 736.446 73.7831C735.971 74.2362 735.593 74.7808 735.335 75.3839C735.077 75.9869 734.944 76.636 734.944 77.2919C734.944 77.9479 735.077 78.597 735.335 79.2C735.593 79.8031 735.971 80.3477 736.446 80.8008C736.92 81.2539 737.482 81.6062 738.096 81.8363C738.711 82.0665 739.366 82.1697 740.022 82.1399H796.175C796.83 82.1697 797.485 82.0665 798.1 81.8363C798.715 81.6062 799.276 81.2539 799.751 80.8008C800.225 80.3477 800.603 79.8031 800.861 79.2C801.119 78.597 801.252 77.9479 801.252 77.2919C801.252 76.636 801.119 75.9869 800.861 75.3839C800.603 74.7808 800.225 74.2362 799.751 73.7831C799.276 73.33 798.715 72.9777 798.1 72.7476C797.485 72.5174 796.83 72.4142 796.175 72.444H805.878C807.166 72.444 808.401 71.9327 809.312 71.0226C810.223 70.1125 810.734 68.8781 810.734 67.5911C810.734 66.304 810.223 65.0696 809.312 64.1595C808.401 63.2494 807.166 62.7381 805.878 62.7381Z" fill="#252223"/>
<path opacity="0.4" d="M57.3668 347.448H47.6252V360.436H57.3668V347.448Z" fill="white"/>
<path opacity="0.4" d="M69.273 360.436H77.9321V347.448H69.273V360.436Z" fill="white"/>
<path opacity="0.4" d="M57.3668 366.931H47.6252V379.92H57.3668V366.931Z" fill="white"/>
<path opacity="0.4" d="M57.3668 387.496H47.6252V399.403H57.3668V387.496Z" fill="white"/>
<path opacity="0.4" d="M57.3668 406.979H47.6252V418.886H57.3668V406.979Z" fill="white"/>
<path d="M70.4698 451.851C70.4698 451.851 71.6563 461.659 73.6199 463.149C75.5835 464.64 81.1557 469.643 78.1351 469.753C75.1144 469.863 64.4846 468.18 64.4846 468.18L63.109 465.605L60.6589 466.587L58.3173 466.216L56.2173 457.05C56.2173 457.05 53.2702 451.872 57.4178 449.78C61.5655 447.689 70.4698 451.851 70.4698 451.851Z" fill="#3A384D"/>
<path opacity="0.1" d="M59.8518 370.739C59.8518 370.739 68.0399 395.082 67.7305 398.207C67.7305 398.207 70.7311 404.25 67.421 413.645C64.111 423.04 67.0734 415.774 67.0734 415.774C67.0734 415.774 66.7604 443.52 69.0274 445.476L70.3556 453.235C70.3556 453.235 57.5883 454.749 55.4396 450.828C55.4396 450.828 57.1016 447.921 55.4744 438.325C53.8472 428.729 50.711 407.585 50.711 407.585L42.2134 359.354L59.8518 370.739Z" fill="black"/>
<path d="M59.8518 370.737C59.8518 370.737 68.0399 395.089 67.7305 398.215C67.7305 398.215 70.7311 404.257 67.421 413.65C64.111 423.043 67.0734 415.778 67.0734 415.778C67.0734 415.778 66.7604 443.524 69.0274 445.475L70.3556 453.236C70.3556 453.236 57.5883 454.747 55.4396 450.826C55.4396 450.826 57.1015 447.92 55.4743 438.325C53.8471 428.731 50.7075 407.58 50.7075 407.58L42.2134 359.354L59.8518 370.737Z" fill="#BEC7DE"/>
<path opacity="0.1" d="M45.1516 360.575L53.2333 407.407C53.2333 407.407 56.2703 428.36 57.8596 437.865C59.449 447.369 57.8259 450.248 57.8259 450.248C58.4333 451.38 59.9079 452.051 61.6963 452.44C59.1858 452.14 56.9215 451.442 56.1319 449.97C56.1319 449.97 57.7483 447.091 56.169 437.586C54.5898 428.081 51.5427 407.128 51.5427 407.128L43.2957 359.354L45.1516 360.575Z" fill="black"/>
<path d="M44.8808 448.604C44.8808 448.604 46.01 458.412 47.8876 459.902C49.7652 461.392 55.0805 466.396 52.1973 466.506C49.3141 466.616 39.1679 464.933 39.1679 464.933L37.8549 462.357L35.5163 463.343L33.2813 462.969L31.2767 453.803C31.2767 453.803 28.4637 448.624 32.4193 446.533C36.3749 444.442 44.8808 448.604 44.8808 448.604Z" fill="#3A384D"/>
<path opacity="0.1" d="M59.8518 370.739C59.8518 370.739 68.0399 395.082 67.7305 398.207C67.7305 398.207 70.7311 404.25 67.421 413.645C64.111 423.04 67.0734 415.774 67.0734 415.774C67.0734 415.774 66.7604 443.52 69.0274 445.476L70.3556 453.235C70.3556 453.235 57.5883 454.749 55.4396 450.828C55.4396 450.828 57.1016 447.921 55.4744 438.325C53.8472 428.729 50.711 407.585 50.711 407.585L42.2134 359.354L59.8518 370.739Z" fill="black"/>
<path opacity="0.1" d="M33.9539 348.655C33.9539 348.655 24.595 352.184 29.6298 365.013C29.6298 365.013 37.189 378.641 37.7139 384.14L47.2835 402.903C47.2835 402.903 37.0783 422.74 36.6248 431.69C36.6248 431.69 35.2608 443.705 29.7548 448.643C29.7548 448.643 41.5989 458.544 46.0087 452.827C46.0087 452.827 44.684 446.002 48.6796 436.61C52.6753 427.218 57.4136 414.55 57.4136 414.55C57.4136 414.55 68.8721 406.944 61.2379 391.295L52.6681 356.452L52.5289 348.61L45.9552 346.365L33.9539 348.655Z" fill="black"/>
<path opacity="0.1" d="M33.7773 349.725C33.7773 349.725 24.7028 353.218 29.5846 365.917C29.5846 365.917 36.9107 379.411 37.4196 384.854L46.6984 403.427C46.6984 403.427 36.8033 423.059 36.3706 431.922C36.3706 431.922 35.048 443.812 29.7058 448.703C29.7058 448.703 41.19 458.504 45.4693 452.845C45.4693 452.845 44.1813 446.086 48.0556 436.792C51.9298 427.499 56.5242 414.942 56.5242 414.942C56.5242 414.942 67.638 407.412 60.2357 391.922L51.9264 357.432L51.7913 349.67L45.4208 347.448L33.7773 349.725Z" fill="black"/>
<path d="M33.7779 348.636C33.7779 348.636 24.7025 352.132 29.5847 364.827C29.5847 364.827 34.969 374.739 36.825 380.998C37.6351 383.686 38.6779 386.299 39.9413 388.805L46.7002 402.345C46.7002 402.345 36.8042 421.98 36.3679 430.839C36.3679 430.839 35.0452 442.733 29.7024 447.621C29.7024 447.621 41.1878 457.421 45.4676 451.763C45.4676 451.763 44.1795 445.007 48.0541 435.71C51.9287 426.413 56.5236 413.86 56.5236 413.86C56.5236 413.86 67.6385 406.33 60.2355 390.84L51.9253 356.35L51.7902 348.587L45.4191 346.365L33.7779 348.636Z" fill="#BEC7DE"/>
<path opacity="0.1" d="M33.6935 348.646L45.1706 346.365L46.6679 346.897L35.9753 349.018C35.9753 349.018 27.0358 352.51 31.8449 365.21C31.8449 365.21 37.1452 375.121 38.9767 381.381C39.7748 384.069 40.8019 386.682 42.0464 389.188L48.7075 402.728C48.7075 402.728 38.946 422.357 38.5265 431.217C38.5265 431.217 37.2202 443.111 31.9609 447.999C31.9609 447.999 36.8348 452.22 41.3745 453.522C36.3675 453.418 29.6791 447.62 29.6791 447.62C34.9418 442.732 36.2447 430.838 36.2447 430.838C36.6745 421.978 46.4224 402.343 46.4224 402.343L39.7646 388.803C38.5201 386.296 37.493 383.684 36.6949 380.995C34.8668 374.746 29.5631 364.824 29.5631 364.824C24.754 352.142 33.6935 348.646 33.6935 348.646Z" fill="black"/>
<path d="M70.3555 373.267L63.1257 387.486C63.1257 387.486 65.2458 406.431 61.1962 406.969C57.1465 407.508 58.7712 386.178 58.7712 386.178L62.6684 368.013L70.3555 373.267Z" fill="#BE7C5E"/>
<path d="M111.134 382.512L116.375 406.908C116.375 406.908 129.239 424.007 120.134 421.963C111.029 419.92 110.527 410.718 110.527 410.718L101.745 381.002L111.134 382.512Z" fill="#BE7C5E"/>
<path d="M116.898 331.866L103.338 339.871L98.4976 327.694C98.4976 327.694 109.721 328.412 111.029 324.468C112.338 320.524 116.898 331.866 116.898 331.866Z" fill="#BE7C5E"/>
<path d="M109.322 336.911L108.556 333.377L96.7564 334.121L92.0034 354.682L100.857 355.024L105.815 346.693L108.517 338.568L109.322 336.911Z" fill="#BE7C5E"/>
<path opacity="0.1" d="M105 332.855L106.031 326.882C106.031 326.882 82.9059 327.178 77.7353 332.566C72.5648 337.953 59.8875 339.884 59.8875 339.884L38.7725 344.239L31.3894 347.449C31.3894 347.449 33.4714 355.448 34.3646 356.001C35.2579 356.554 45.2279 348.13 45.2279 348.13L49.007 349.158L36.7008 362.428L59.4134 385.331L59.8325 372.71L62.7425 370.377C62.7425 370.377 69.6583 376.367 72.7434 375.458L76.6325 368.246C76.6325 368.246 84.6717 363.334 86.9701 363.714C89.1105 364.067 95.8167 362.555 98.4072 359.69C98.5889 359.49 98.7544 359.274 98.9019 359.046C100.991 355.765 100.132 376.17 100.132 376.17L98.9568 383.63L111.486 383.894L108.972 371.188C108.972 371.188 109.099 357.914 109.71 352.777C110.322 347.64 111.428 340.575 109.185 336.17L104.773 340.476L97.0982 353.112L100.012 342.111L105 332.855Z" fill="black"/>
<path d="M105.986 332.88L104.875 326.882C104.875 326.882 83.5993 327.324 78.3577 332.597C73.1162 337.871 60.2474 339.757 60.2474 339.757L38.8425 344.024L31.3894 347.169C31.3894 347.169 33.5 354.998 34.4055 355.536C35.311 356.074 45.4214 347.835 45.4214 347.835L49.2524 348.842L36.7772 361.831L59.8017 384.249L60.2266 371.891L63.1869 369.605C63.1869 369.605 70.1977 375.468 73.3252 374.582L77.2676 367.522C77.2676 367.522 85.372 362.714 87.7159 363.097C89.8856 363.441 96.684 361.958 99.31 359.154C99.4942 358.958 99.662 358.747 99.8115 358.523C101.929 355.312 101.058 375.289 101.058 375.289L99.8672 382.59L112.569 382.849L110.019 370.412C110.019 370.412 110.148 357.416 110.768 352.391C111.388 347.366 112.51 340.444 110.235 336.136L105.763 340.333L97.9726 352.691L100.926 341.923L105.986 332.88Z" fill="#6C63FF"/>
<path opacity="0.1" d="M77.9323 340.953C77.9323 340.953 66.174 351.506 64.9436 357.189L77.9323 340.953Z" fill="black"/>
<path opacity="0.1" d="M92.0034 349.613C92.0034 349.613 82.8194 356.891 81.1794 361.519L92.0034 349.613Z" fill="black"/>
<path opacity="0.1" d="M63.8612 360.436C63.8612 360.436 62.9575 365.379 62.7788 368.013L63.8612 360.436Z" fill="black"/>
<path opacity="0.1" d="M58.4493 371.26C58.4493 371.26 44.2068 358.005 42.2134 358.276L58.4493 371.26Z" fill="black"/>
<path opacity="0.1" d="M111.398 324.517C112.577 320.517 116.563 331.362 116.898 332.294C116.519 332.272 116.142 332.228 115.767 332.163C114.254 331.907 112.806 331.328 111.512 330.461C110.218 329.594 109.104 328.457 108.239 327.121C109.793 326.605 111.031 325.79 111.398 324.517Z" fill="black"/>
<path d="M116.898 332.294C123.474 332.294 128.805 326.964 128.805 320.388C128.805 313.812 123.474 308.482 116.898 308.482C110.323 308.482 104.992 313.812 104.992 320.388C104.992 326.964 110.323 332.294 116.898 332.294Z" fill="#BE7C5E"/>
<path opacity="0.1" d="M125.415 322.609C126.304 324.062 127.113 325.639 128.485 326.656C129.858 327.673 132.019 327.903 133.16 326.636C133.574 326.129 133.855 325.526 133.976 324.884C134.812 321.341 133.35 317.669 131.452 314.546C129.163 310.798 126.124 307.407 122.269 305.27C118.414 303.133 113.674 302.374 109.498 303.796C105.322 305.218 101.892 309.018 101.546 313.388C101.356 315.621 101.923 317.899 101.456 320.094C101.214 321.238 100.692 322.327 100.633 323.496C100.523 325.663 102.016 327.68 101.882 329.848C101.799 331.184 101.111 332.397 100.689 333.672C99.6516 336.743 100.212 340.086 99.9973 343.316C99.783 346.545 98.362 350.166 95.2505 351.121C98.6905 352.839 103.434 351.032 104.834 347.466C105.259 346.377 105.415 345.167 106.061 344.192C107.154 342.543 109.425 341.89 110.342 340.138C111.258 338.385 110.463 336.252 109.46 334.551C108.457 332.851 107.206 331.14 107.185 329.171C107.192 328.21 107.494 327.274 108.05 326.487C108.606 325.7 109.389 325.1 110.297 324.767C111.24 324.44 112.26 324.423 113.253 324.313C115.714 323.999 118.065 323.108 120.112 321.713C122.77 319.984 123.483 319.448 125.415 322.609Z" fill="black"/>
<path d="M126.255 321.957C127.168 323.446 127.999 325.054 129.41 326.097C130.82 327.14 133.04 327.372 134.213 326.076C134.639 325.557 134.927 324.942 135.051 324.285C135.911 320.664 134.408 316.91 132.458 313.717C130.106 309.882 126.983 306.419 123.022 304.235C119.061 302.05 114.19 301.278 109.898 302.728C105.607 304.179 101.287 308.123 100.906 312.59C100.711 314.873 100.992 315.93 100.512 318.171C100.263 319.34 100.842 321.683 100.782 322.87C100.668 325.086 102.203 327.147 102.065 329.364C101.979 330.73 101.272 331.969 100.839 333.269C99.7731 336.412 100.349 339.829 100.128 343.131C99.9081 346.432 98.4479 350.13 95.2505 351.107C98.7854 352.863 103.66 351.015 105.099 347.37C105.536 346.26 105.695 345.024 106.36 344.026C107.482 342.341 109.817 341.673 110.758 339.882C111.699 338.091 110.882 335.906 109.856 334.168C108.829 332.43 107.536 330.684 107.514 328.668C107.523 327.686 107.833 326.73 108.404 325.926C108.975 325.123 109.78 324.51 110.712 324.169C111.682 323.836 112.73 323.818 113.749 323.706C116.278 323.383 118.694 322.472 120.798 321.047C123.544 319.273 124.276 318.729 126.255 321.957Z" fill="#723647"/>
<path d="M102.645 328.27L107.486 329.052C107.862 329.113 108.217 328.858 108.277 328.483C108.338 328.108 108.082 327.754 107.706 327.694L102.865 326.912C102.489 326.851 102.134 327.106 102.074 327.481C102.013 327.856 102.269 328.209 102.645 328.27Z" fill="#252A62"/>
<path d="M92.0045 424.667C92.0857 430.025 96.7464 434.248 102.271 434.248H103.041C103.72 434.245 104.373 434.501 104.861 434.959C105.231 435.295 105.488 435.732 105.599 436.212C105.651 436.405 105.677 436.604 105.676 436.804V446.264C105.672 448.084 106.209 449.865 107.221 451.397C108.695 453.566 109.493 456.101 109.522 458.698C109.522 459.305 109.646 459.905 109.888 460.464C110.13 461.024 110.484 461.53 110.93 461.955C111.376 462.38 111.905 462.715 112.486 462.939C113.067 463.164 113.688 463.274 114.313 463.263C116.896 463.218 118.921 461.063 118.921 458.555V456.19L120.205 456.334V458.705C120.205 459.311 120.33 459.91 120.572 460.469C120.814 461.027 121.168 461.533 121.614 461.958C122.059 462.382 122.588 462.716 123.168 462.94C123.748 463.164 124.368 463.274 124.993 463.263C127.579 463.218 129.604 461.063 129.604 458.555V457.357C130.885 457.877 138.149 457.877 140.164 457.357L140.711 457.316V458.685C140.709 459.292 140.832 459.894 141.073 460.455C141.314 461.016 141.668 461.524 142.114 461.951C142.56 462.377 143.09 462.713 143.672 462.938C144.253 463.163 144.876 463.274 145.502 463.263C148.085 463.218 150.11 461.063 150.11 458.555V456.591L150.537 456.553V458.709C150.538 459.314 150.664 459.913 150.906 460.472C151.148 461.03 151.503 461.535 151.949 461.959C152.395 462.383 152.923 462.716 153.503 462.94C154.083 463.164 154.704 463.274 155.328 463.263C156.467 463.226 157.555 462.795 158.395 462.05C159.236 461.304 159.775 460.291 159.915 459.195C159.941 458.982 159.955 458.769 159.957 458.555V448.659C159.961 445.26 158.786 441.958 156.623 439.284C156.248 438.811 156.038 438.234 156.023 437.638C156.009 437.041 156.19 436.455 156.542 435.965C158.934 432.568 162.473 426.833 162.356 422.768C162.381 421.666 161.982 420.594 161.238 419.76C161.192 419.709 161.142 419.661 161.097 419.613C157.653 416.116 151.592 418.867 152.117 423.675C152.296 425.285 152.177 426.913 151.765 428.482C151.526 429.368 151.203 430.23 150.801 431.059C150.399 431.89 149.737 432.577 148.909 433.023C148.082 433.47 147.131 433.653 146.19 433.546C145.551 433.47 144.908 433.433 144.264 433.433H124.506C123.346 433.434 122.216 433.082 121.273 432.427C120.33 431.772 119.622 430.847 119.249 429.782C119.048 429.225 118.947 428.638 118.949 428.048V413.129C118.949 412.741 118.869 412.356 118.713 411.998C118.557 411.64 118.328 411.316 118.041 411.046C117.753 410.775 117.412 410.563 117.039 410.423C116.665 410.282 116.266 410.216 115.865 410.228C115.474 410.242 115.09 410.331 114.736 410.492C114.381 410.652 114.063 410.88 113.801 411.162C113.267 411.733 112.97 412.477 112.969 413.249C112.969 413.451 112.929 413.651 112.849 413.838C112.77 414.024 112.653 414.194 112.506 414.336C112.359 414.479 112.184 414.592 111.991 414.669C111.799 414.746 111.593 414.786 111.385 414.785H102.046C100.714 414.785 99.3966 415.042 98.1685 415.54C96.9405 416.039 95.827 416.769 94.8926 417.688C93.9582 418.608 93.2217 419.698 92.7259 420.896C92.2301 422.094 91.9849 423.376 92.0045 424.667Z" fill="#F3AD55"/>
<path d="M150.452 460.136C150.701 461.044 151.266 461.846 152.056 462.414C152.846 462.981 153.816 463.28 154.808 463.263C155.877 463.229 156.897 462.836 157.686 462.154C158.475 461.473 158.98 460.548 159.112 459.546C156.411 458.867 152.71 458.398 150.452 460.136Z" fill="#FBDCA3"/>
<path d="M140.711 460.136C140.96 461.044 141.527 461.847 142.319 462.414C143.112 462.981 144.084 463.28 145.079 463.263C146.146 463.225 147.164 462.83 147.95 462.149C148.737 461.468 149.24 460.545 149.37 459.546C146.697 458.867 142.999 458.398 140.711 460.136Z" fill="#FBDCA3"/>
<path d="M120.146 460.136C120.425 461.044 121.06 461.846 121.95 462.414C122.839 462.981 123.93 463.28 125.046 463.263C126.248 463.229 127.396 462.836 128.284 462.154C129.171 461.473 129.74 460.548 129.887 459.546C126.848 458.867 122.693 458.398 120.146 460.136Z" fill="#FBDCA3"/>
<path d="M110.404 460.136C110.653 461.045 111.22 461.847 112.012 462.415C112.805 462.982 113.777 463.281 114.772 463.263C115.839 463.225 116.857 462.83 117.643 462.149C118.43 461.468 118.933 460.545 119.063 459.546C116.39 458.867 112.682 458.398 110.404 460.136Z" fill="#FBDCA3"/>
<path d="M151.535 428.627C154.93 427.287 159.071 424.833 162.358 422.706C162.383 421.563 161.975 420.452 161.214 419.589C161.167 419.536 161.117 419.486 161.07 419.436C157.549 415.812 151.351 418.663 151.888 423.645C152.074 425.313 151.954 427 151.535 428.627Z" fill="#FBDCA3"/>
<path d="M147.205 432.986C147.205 432.986 138.172 445.116 123.393 432.957L147.205 432.986Z" fill="#FBDCA3"/>
<path d="M119.063 411.309C119.063 411.309 114.192 419.061 119.063 428.627V411.309Z" fill="#FBDCA3"/>
<path d="M106.074 437.286C106.074 437.286 113.318 442.712 106.168 447.028L106.074 437.286Z" fill="#FBDCA3"/>
<path opacity="0.1" d="M104.992 435.948C105.345 436.351 105.232 436.714 105.345 437.286L121.228 432.532C120.374 431.778 119.311 430.887 118.962 429.71C117.063 431.383 113.297 434.214 104.992 435.948Z" fill="black"/>
<path d="M104.992 434.942C105.362 435.28 105.62 435.72 105.73 436.204L121.228 432.258C120.363 431.607 119.714 430.72 119.363 429.71C117.457 431.155 113.301 433.452 104.992 434.942Z" fill="#383F4D"/>
<path opacity="0.1" d="M119.063 430.792C119.063 430.792 114.209 434.097 106.074 435.121L119.063 430.792Z" fill="black"/>
<path d="M119.063 429.71C119.063 429.71 114.209 433.015 106.074 434.039L119.063 429.71Z" fill="#F3AD55"/>
<path opacity="0.1" d="M107.157 430.371C107.157 430.371 99.4467 433.177 97.4153 424.298L107.157 430.371Z" fill="black"/>
<path d="M107.157 429.359C107.157 429.359 99.4467 431.697 97.4153 424.298L107.157 429.359Z" fill="#FBDCA3"/>
<path d="M92.5446 424.298C92.8435 424.298 93.0858 423.813 93.0858 423.215C93.0858 422.617 92.8435 422.133 92.5446 422.133C92.2457 422.133 92.0034 422.617 92.0034 423.215C92.0034 423.813 92.2457 424.298 92.5446 424.298Z" fill="#383F4D"/>
<path opacity="0.1" d="M156.705 454.605L154.782 440.533C154.782 440.533 160.556 448.885 156.705 454.605Z" fill="black"/>
<path d="M153.7 440.533C153.7 440.533 159.473 448.885 155.623 454.605L153.7 440.533Z" fill="#FBDCA3"/>
<path d="M678.419 392.86C685.279 399.511 717.209 406.404 717.209 406.404C717.209 406.404 709.389 374.712 702.538 368.061C700.916 366.441 698.988 365.16 696.867 364.291C694.745 363.422 692.472 362.984 690.179 363C687.886 363.017 685.62 363.489 683.511 364.389C681.402 365.288 679.493 366.597 677.895 368.24C676.297 369.884 675.042 371.828 674.202 373.96C673.363 376.091 672.955 378.369 673.004 380.66C673.053 382.95 673.556 385.208 674.486 387.303C675.415 389.397 676.752 391.286 678.419 392.86Z" fill="#72599A"/>
</g>
<defs>
<clipPath id="clip0">
<rect width="829.98" height="542.222" fill="white"/>
</clipPath>
</defs>
</svg>
